<?xml version="1.0" encoding="utf-8"?>
<!-- Generator: Adobe Illustrator 17.1.0, SVG Export Plug-In . SVG Version: 6.00 Build 0)  -->
<!DOCTYPE svg PUBLIC "-//W3C//DTD SVG 1.1//EN" "http://www.w3.org/Graphics/SVG/1.1/DTD/svg11.dtd">
<svg version="1.1" id="Layer_1" xmlns="http://www.w3.org/2000/svg" xmlns:xlink="http://www.w3.org/1999/xlink" x="0px" y="0px"
	 viewBox="0 0 42.2 24.1" enable-background="new 0 0 42.2 24.1" xml:space="preserve">
<g>
	<path fill="#515354" d="M31.7,23.4c0-0.2,0.1-0.3,0.2-0.4l8.7-11.1L31.9,1.2c-0.3-0.3-0.2-0.8,0.1-1c0.3-0.3,0.8-0.2,1,0.1l9,11.1
		c0.2,0.3,0.2,0.6,0,0.9l-9,11.6c-0.2,0.3-0.7,0.4-1,0.1C31.8,23.8,31.7,23.6,31.7,23.4z"/>
	<path fill="#515354" d="M0,11.8c0-0.4,0.3-0.7,0.7-0.7h40.8c0.4,0,0.7,0.3,0.7,0.7c0,0.4-0.3,0.7-0.7,0.7H0.7
		C0.3,12.5,0,12.2,0,11.8z"/>
</g>
</svg>
